<svg width="400" height="400" viewBox="0 0 400 400" fill="none" xmlns="http://www.w3.org/2000/svg">
<mask id="mask0_7_1003" style="mask-type:alpha" maskUnits="userSpaceOnUse" x="0" y="0" width="400" height="400">
<rect width="400" height="400" fill="#D9D9D9"/>
</mask>
<g mask="url(#mask0_7_1003)">
<path d="M100.073 344.026C96.3344 347.688 91.3103 349.738 86.0779 349.738H0L299.927 55.9737C303.666 52.3124 308.69 50.2618 313.922 50.2618H400L100.073 344.026Z" fill="black"/>
<mask id="mask1_7_1003" style="mask-type:alpha" maskUnits="userSpaceOnUse" x="0" y="50" width="400" height="300">
<path d="M100.072 344.026C96.3344 347.688 91.3103 349.738 86.0779 349.738H0L299.927 55.9737C303.666 52.3124 308.69 50.2618 313.922 50.2618H400L100.072 344.026Z" fill="white"/>
</mask>
<g mask="url(#mask1_7_1003)">
<path d="M82 318H30L305 48.5001L321.5 81.5001L82 318Z" fill="url(#paint0_linear_7_1003)"/>
<path d="M400 81.5001H321.5L305.632 50.0001H400V81.5001Z" fill="url(#paint1_linear_7_1003)"/>
</g>
<path d="M61 192.932L139.01 116.492L197.649 116.492L264.141 50L101.745 50C96.4407 50 91.3536 52.1071 87.6029 55.8579L66.8579 76.6029C63.1071 80.3536 61 85.4407 61 90.745L61 192.932Z" fill="black"/>
<mask id="mask2_7_1003" style="mask-type:alpha" maskUnits="userSpaceOnUse" x="61" y="50" width="204" height="143">
<path d="M61 192.932L139.01 116.492L197.649 116.492L264.141 50L101.745 50C96.4407 50 91.3536 52.1071 87.6029 55.8579L66.8579 76.6029C63.1071 80.3536 61 85.4407 61 90.745L61 192.932Z" fill="#FF8989"/>
</mask>
<g mask="url(#mask2_7_1003)">
<path d="M86.6414 81.932L173.267 81.932L198.267 46.932L70.0158 45.432L86.6414 81.932Z" fill="url(#paint2_linear_7_1003)"/>
<path d="M86.6414 116.432L60.1414 195.432L59.2441 81.932L72.6414 50.932L86.6414 81.932V116.432Z" fill="url(#paint3_linear_7_1003)"/>
</g>
<path d="M340.141 205L262.131 281.44H203.492L137 347.932H299.396C304.701 347.932 309.788 345.825 313.538 342.074L334.283 321.329C338.034 317.578 340.141 312.491 340.141 307.187V205Z" fill="black"/>
<mask id="mask3_7_1003" style="mask-type:alpha" maskUnits="userSpaceOnUse" x="137" y="205" width="204" height="143">
<path d="M340.141 205L262.131 281.44H203.492L137 347.932H299.396C304.701 347.932 309.788 345.825 313.538 342.074L334.283 321.329C338.034 317.578 340.141 312.491 340.141 307.187V205Z" fill="#FF8989"/>
</mask>
<g mask="url(#mask3_7_1003)">
<path d="M314.375 316.194H227.875L202.875 281.194H261.875L314.375 316.194Z" fill="url(#paint4_linear_7_1003)"/>
<path d="M314.375 316.194L261.875 281.194L340.375 204.194L314.375 281.194V316.194Z" fill="url(#paint5_linear_7_1003)"/>
</g>
</g>
<defs>
<linearGradient id="paint0_linear_7_1003" x1="80.5" y1="318" x2="305" y2="53.5001" gradientUnits="userSpaceOnUse">
<stop stop-color="#505050"/>
<stop offset="1" stop-color="#2E2E2E"/>
</linearGradient>
<linearGradient id="paint1_linear_7_1003" x1="400" y1="66.0001" x2="306" y2="66.0001" gradientUnits="userSpaceOnUse">
<stop stop-color="#505050"/>
<stop offset="1" stop-color="#2E2E2E"/>
</linearGradient>
<linearGradient id="paint2_linear_7_1003" x1="87.267" y1="81.932" x2="193.767" y2="35.432" gradientUnits="userSpaceOnUse">
<stop stop-color="#2E2E2E"/>
<stop offset="1" stop-color="#505050"/>
</linearGradient>
<linearGradient id="paint3_linear_7_1003" x1="72.9427" y1="195.432" x2="80.6414" y2="67.432" gradientUnits="userSpaceOnUse">
<stop stop-color="#505050"/>
<stop offset="1" stop-color="#2E2E2E"/>
</linearGradient>
<linearGradient id="paint4_linear_7_1003" x1="313.875" y1="316.194" x2="207.375" y2="269.694" gradientUnits="userSpaceOnUse">
<stop stop-color="#2E2E2E"/>
<stop offset="1" stop-color="#505050"/>
</linearGradient>
<linearGradient id="paint5_linear_7_1003" x1="301.125" y1="316.194" x2="301.125" y2="204.194" gradientUnits="userSpaceOnUse">
<stop stop-color="#2E2E2E"/>
<stop offset="1" stop-color="#505050"/>
</linearGradient>
</defs>
</svg>
